<?xml version="1.0" encoding="UTF-8"?>
<!DOCTYPE svg PUBLIC "-//W3C//DTD SVG 1.1//EN" "http://www.w3.org/Graphics/SVG/1.1/DTD/svg11.dtd">
<svg xmlns="http://www.w3.org/2000/svg" version="1.1" width="457px" height="139px" style="shape-rendering:geometricPrecision; text-rendering:geometricPrecision; image-rendering:optimizeQuality; fill-rule:evenodd; clip-rule:evenodd" xmlns:xlink="http://www.w3.org/1999/xlink">
<g><path style="opacity:1" fill="#0c518a" d="M 80.5,3.5 C 85.1667,3.5 89.8333,3.5 94.5,3.5C 94.5,41.8333 94.5,80.1667 94.5,118.5C 89.8333,118.5 85.1667,118.5 80.5,118.5C 80.8204,115.102 80.487,111.768 79.5,108.5C 78.8933,108.624 78.56,108.957 78.5,109.5C 64.1645,120.667 48.4979,122.833 31.5,116C 28.079,114.301 25.079,112.135 22.5,109.5C 21.1901,102.401 21.1901,95.4012 22.5,88.5C 33.442,104.653 47.7753,108.487 65.5,100C 81.6143,86.689 83.6143,71.5224 71.5,54.5C 71.5,52.5 70.5,51.5 68.5,51.5C 63.5763,48.0337 58.2429,45.7003 52.5,44.5C 52.5,39.8333 52.5,35.1667 52.5,30.5C 54.5,30.5 56.5,30.5 58.5,30.5C 64.9751,31.0968 70.6418,33.4301 75.5,37.5C 76.292,39.2572 77.6253,40.5905 79.5,41.5C 80.4991,28.8508 80.8324,16.1842 80.5,3.5 Z"/></g>
<g><path style="opacity:1" fill="#0c4f85" d="M 251.5,117.5 C 249.167,117.5 246.833,117.5 244.5,117.5C 244.649,116.448 244.483,115.448 244,114.5C 239.716,118.473 234.883,119.473 229.5,117.5C 229.027,116.094 228.027,115.427 226.5,115.5C 225.069,113.811 224.236,111.811 224,109.5C 223.333,89.8333 223.333,70.1667 224,50.5C 225.975,43.0444 230.809,40.2111 238.5,42C 240.066,42.6082 241.4,43.4415 242.5,44.5C 242.369,45.3764 242.702,46.0431 243.5,46.5C 244.498,37.5246 244.832,28.5246 244.5,19.5C 246.833,19.5 249.167,19.5 251.5,19.5C 251.5,52.1667 251.5,84.8333 251.5,117.5 Z M 236.5,109.5 C 235.71,108.599 234.71,107.932 233.5,107.5C 232.361,89.8772 232.194,72.2105 233,54.5C 236.159,50.564 239.492,50.564 243,54.5C 243.667,71.5 243.667,88.5 243,105.5C 241.362,107.734 239.195,109.067 236.5,109.5 Z"/></g>
<g><path style="opacity:0.647" fill="#073358" d="M 251.5,117.5 C 251.5,84.8333 251.5,52.1667 251.5,19.5C 249.167,19.5 246.833,19.5 244.5,19.5C 244.832,28.5246 244.498,37.5246 243.5,46.5C 242.702,46.0431 242.369,45.3764 242.5,44.5C 243.493,36.0161 243.826,27.3494 243.5,18.5C 246.5,18.5 249.5,18.5 252.5,18.5C 252.832,51.6709 252.498,84.6709 251.5,117.5 Z"/></g>
<g><path style="opacity:0.173" fill="#05111b" d="M 261.5,18.5 C 261.5,23.5 261.5,28.5 261.5,33.5C 264.167,33.5 266.833,33.5 269.5,33.5C 269.5,28.5 269.5,23.5 269.5,18.5C 270.488,23.6405 270.821,28.9738 270.5,34.5C 267.167,34.5 263.833,34.5 260.5,34.5C 260.179,28.9738 260.512,23.6405 261.5,18.5 Z"/></g>
<g><path style="opacity:1" fill="#0b528c" d="M 261.5,18.5 C 264.167,18.5 266.833,18.5 269.5,18.5C 269.5,23.5 269.5,28.5 269.5,33.5C 266.833,33.5 264.167,33.5 261.5,33.5C 261.5,28.5 261.5,23.5 261.5,18.5 Z"/></g>
<g><path style="opacity:0.141" fill="#030e16" d="M 315.5,18.5 C 315.5,23.5 315.5,28.5 315.5,33.5C 318.167,33.5 320.833,33.5 323.5,33.5C 323.5,28.5 323.5,23.5 323.5,18.5C 324.488,23.6405 324.821,28.9738 324.5,34.5C 321.167,34.5 317.833,34.5 314.5,34.5C 314.179,28.9738 314.512,23.6405 315.5,18.5 Z"/></g>
<g><path style="opacity:1" fill="#0b528c" d="M 315.5,18.5 C 318.167,18.5 320.833,18.5 323.5,18.5C 323.5,23.5 323.5,28.5 323.5,33.5C 320.833,33.5 318.167,33.5 315.5,33.5C 315.5,28.5 315.5,23.5 315.5,18.5 Z"/></g>
<g><path style="opacity:1" fill="#201b1d" d="M 201.5,19.5 C 204.5,19.5 207.5,19.5 210.5,19.5C 210.5,27.1667 210.5,34.8333 210.5,42.5C 213.5,42.5 216.5,42.5 219.5,42.5C 219.5,45.5 219.5,48.5 219.5,51.5C 216.5,51.5 213.5,51.5 210.5,51.5C 210.333,69.5031 210.5,87.5031 211,105.5C 211.975,109.843 214.475,111.51 218.5,110.5C 219.48,113.086 219.813,115.753 219.5,118.5C 210.376,120.87 204.543,117.536 202,108.5C 201.5,89.5029 201.333,70.5029 201.5,51.5C 200.5,51.5 199.5,51.5 198.5,51.5C 198.5,48.5 198.5,45.5 198.5,42.5C 199.5,42.5 200.5,42.5 201.5,42.5C 201.5,34.8333 201.5,27.1667 201.5,19.5 Z"/></g>
<g><path style="opacity:0.546" fill="#082d4d" d="M 80.5,3.5 C 80.8324,16.1842 80.4991,28.8508 79.5,41.5C 77.6253,40.5905 76.292,39.2572 75.5,37.5C 76.7206,38.0283 77.8873,38.695 79,39.5C 79.1693,27.3263 79.6693,15.3263 80.5,3.5 Z"/></g>
<g><path style="opacity:1" fill="#231d1f" d="M 19.5,118.5 C 14.5,118.5 9.5,118.5 4.5,118.5C 4.5,90.1667 4.5,61.8333 4.5,33.5C 9.5,33.5 14.5,33.5 19.5,33.5C 18.4193,40.144 19.7526,41.3107 23.5,37C 31.3953,31.7563 40.0619,29.2563 49.5,29.5C 49.5,34.5 49.5,39.5 49.5,44.5C 33.1268,46.3739 23.2934,55.3739 20,71.5C 19.5001,87.1631 19.3334,102.83 19.5,118.5 Z"/></g>
<g><path style="opacity:0.321" fill="#051b2e" d="M 58.5,30.5 C 56.5,30.5 54.5,30.5 52.5,30.5C 52.5,35.1667 52.5,39.8333 52.5,44.5C 51.5128,39.6946 51.1795,34.6946 51.5,29.5C 54.0593,29.1984 56.3926,29.5318 58.5,30.5 Z"/></g>
<g><path style="opacity:0.268" fill="#0b090a" d="M 4.5,33.5 C 4.5,61.8333 4.5,90.1667 4.5,118.5C 9.5,118.5 14.5,118.5 19.5,118.5C 14.3595,119.488 9.02621,119.821 3.5,119.5C 3.16866,90.6618 3.50199,61.9951 4.5,33.5 Z"/></g>
<g><path style="opacity:1" fill="#201b1c" d="M 140.5,41.5 C 147.561,40.4562 153.061,42.7895 157,48.5C 158.406,59.4363 158.906,70.4363 158.5,81.5C 152.167,81.5 145.833,81.5 139.5,81.5C 139.334,89.5069 139.5,97.5069 140,105.5C 141.334,109.104 143.834,110.271 147.5,109C 148.126,108.25 148.626,107.416 149,106.5C 149.5,99.8417 149.666,93.175 149.5,86.5C 152.5,86.5 155.5,86.5 158.5,86.5C 158.666,93.8409 158.5,101.174 158,108.5C 156.647,116.019 152.147,119.686 144.5,119.5C 139.762,119.215 135.929,117.215 133,113.5C 131.368,92.5643 131.034,71.5643 132,50.5C 133.688,46.3148 136.521,43.3148 140.5,41.5 Z M 142.5,51.5 C 145.547,50.8554 147.713,51.8554 149,54.5C 149.5,61.1583 149.666,67.825 149.5,74.5C 146.167,74.5 142.833,74.5 139.5,74.5C 139.334,68.1579 139.5,61.8246 140,55.5C 140.662,54.0161 141.496,52.6828 142.5,51.5 Z"/></g>
<g><path style="opacity:1" fill="#201b1d" d="M 166.5,117.5 C 166.5,92.8333 166.5,68.1667 166.5,43.5C 168.5,43.5 170.5,43.5 172.5,43.5C 172.215,45.288 172.548,46.9547 173.5,48.5C 174.919,47.9953 175.585,46.9953 175.5,45.5C 179.907,41.1091 184.907,40.4424 190.5,43.5C 191.584,44.6651 192.417,45.9984 193,47.5C 194.459,70.7809 194.959,94.1142 194.5,117.5C 191.167,117.5 187.833,117.5 184.5,117.5C 184.667,95.8308 184.5,74.1641 184,52.5C 180.552,50.0116 177.552,50.6782 175,54.5C 174.5,75.4974 174.333,96.4974 174.5,117.5C 171.833,117.5 169.167,117.5 166.5,117.5 Z"/></g>
<g><path style="opacity:0.133" fill="#08131e" d="M 306.5,43.5 C 304.167,43.5 301.833,43.5 299.5,43.5C 299.66,45.1992 299.494,46.8659 299,48.5C 298.283,47.9558 297.783,47.2891 297.5,46.5C 298.434,45.4324 298.768,44.099 298.5,42.5C 301.385,42.1936 304.052,42.5269 306.5,43.5 Z"/></g>
<g><path style="opacity:1" fill="#848488" d="M 354.5,44.5 C 354.427,46.0269 355.094,47.0269 356.5,47.5C 358.109,50.1489 358.943,53.1489 359,56.5C 359.499,62.1569 359.666,67.8236 359.5,73.5C 356.5,73.5 353.5,73.5 350.5,73.5C 350.666,67.1579 350.5,60.8246 350,54.5C 348.334,51.6212 345.834,50.7879 342.5,52C 341.874,52.7504 341.374,53.5838 341,54.5C 340.333,71.8333 340.333,89.1667 341,106.5C 344.294,110.473 347.46,110.473 350.5,106.5C 351.49,100.355 351.823,94.0221 351.5,87.5C 353.833,87.5 356.167,87.5 358.5,87.5C 358.5,94.1667 358.5,100.833 358.5,107.5C 357.897,115.333 353.563,119.333 345.5,119.5C 339.774,119.223 335.607,116.556 333,111.5C 331.37,91.8983 331.037,72.2316 332,52.5C 332.374,50.5087 333.207,48.842 334.5,47.5C 335.833,46.8333 336.833,45.8333 337.5,44.5C 339.607,42.3485 342.274,41.3485 345.5,41.5C 348.926,41.5308 351.926,42.5308 354.5,44.5 Z"/></g>
<g><path style="opacity:1" fill="#86868a" d="M 382.5,73.5 C 383.821,70.4018 384.488,66.9018 384.5,63C 384.488,59.0982 383.821,55.5982 382.5,52.5C 380.057,50.0476 377.557,50.0476 375,52.5C 373.671,59.092 373.171,65.7586 373.5,72.5C 370.833,72.5 368.167,72.5 365.5,72.5C 365.334,65.4921 365.5,58.4921 366,51.5C 367.729,44.7706 372.062,41.4373 379,41.5C 385.938,41.4373 390.271,44.7706 392,51.5C 392.172,73.4061 392.672,95.2394 393.5,117C 392,117.167 390.5,117.333 389,117.5C 387.019,117.371 385.353,116.704 384,115.5C 377.775,120.663 371.775,120.33 366,114.5C 364.47,106.564 364.137,98.5643 365,90.5C 367.355,81.3125 373.188,75.6458 382.5,73.5 Z M 382.5,80.5 C 383.493,88.9839 383.826,97.6506 383.5,106.5C 381.593,109.332 378.927,110.166 375.5,109C 373.05,101.969 372.884,94.8028 375,87.5C 376.742,84.2543 379.242,81.921 382.5,80.5 Z"/></g>
<g><path style="opacity:1" fill="#89898d" d="M 447.5,45.5 C 447.427,47.0269 448.094,48.0269 449.5,48.5C 450.148,50.0858 450.648,51.7525 451,53.5C 451.5,62.8274 451.666,72.1607 451.5,81.5C 445.167,81.5 438.833,81.5 432.5,81.5C 432.225,90.2206 432.558,98.8873 433.5,107.5C 433.5,108.833 434.167,109.5 435.5,109.5C 439.183,110.32 441.517,108.987 442.5,105.5C 443.49,99.69 443.823,93.69 443.5,87.5C 445.833,87.5 448.167,87.5 450.5,87.5C 450.5,94.1667 450.5,100.833 450.5,107.5C 449.897,115.333 445.563,119.333 437.5,119.5C 431.244,119.297 427.077,116.297 425,110.5C 424.034,89.4357 424.368,68.4357 426,47.5C 432.645,40.3549 439.812,39.6883 447.5,45.5 Z M 442.5,54.5 C 442.5,61.1667 442.5,67.8333 442.5,74.5C 439.167,74.5 435.833,74.5 432.5,74.5C 432.222,67.621 432.555,60.7877 433.5,54C 436.79,50.5651 439.79,50.7318 442.5,54.5 Z"/></g>
<g><path style="opacity:0.412" fill="#0e0b0c" d="M 115.5,43.5 C 113.167,43.5 110.833,43.5 108.5,43.5C 108.5,68.1667 108.5,92.8333 108.5,117.5C 107.502,92.6722 107.169,67.6722 107.5,42.5C 110.385,42.1936 113.052,42.5269 115.5,43.5 Z"/></g>
<g><path style="opacity:1" fill="#221c1e" d="M 108.5,117.5 C 108.5,92.8333 108.5,68.1667 108.5,43.5C 110.833,43.5 113.167,43.5 115.5,43.5C 115.351,44.552 115.517,45.552 116,46.5C 118.944,42.8864 122.777,41.5531 127.5,42.5C 127.5,45.8333 127.5,49.1667 127.5,52.5C 124.813,52.3359 122.146,52.5026 119.5,53C 118.299,53.9025 117.465,55.0692 117,56.5C 116.5,76.8306 116.333,97.1639 116.5,117.5C 113.833,117.5 111.167,117.5 108.5,117.5 Z"/></g>
<g><path style="opacity:0.482" fill="#100d0e" d="M 175.5,45.5 C 175.585,46.9953 174.919,47.9953 173.5,48.5C 172.548,46.9547 172.215,45.288 172.5,43.5C 170.5,43.5 168.5,43.5 166.5,43.5C 166.5,68.1667 166.5,92.8333 166.5,117.5C 165.502,92.6722 165.169,67.6722 165.5,42.5C 168.167,42.5 170.833,42.5 173.5,42.5C 173.343,43.8734 173.51,45.2068 174,46.5C 174.383,45.944 174.883,45.6107 175.5,45.5 Z"/></g>
<g><path style="opacity:1" fill="#0d538d" d="M 269.5,117.5 C 266.833,118.833 264.167,118.833 261.5,117.5C 261.5,92.8333 261.5,68.1667 261.5,43.5C 264.167,43.5 266.833,43.5 269.5,43.5C 269.5,68.1667 269.5,92.8333 269.5,117.5 Z"/></g>
<g><path style="opacity:0.173" fill="#010d16" d="M 269.5,117.5 C 269.5,92.8333 269.5,68.1667 269.5,43.5C 266.833,43.5 264.167,43.5 261.5,43.5C 261.5,68.1667 261.5,92.8333 261.5,117.5C 260.502,92.6722 260.169,67.6722 260.5,42.5C 263.833,42.5 267.167,42.5 270.5,42.5C 270.831,67.6722 270.498,92.6722 269.5,117.5 Z"/></g>
<g><path style="opacity:1" fill="#0c4d83" d="M 297.5,46.5 C 297.783,47.2891 298.283,47.9558 299,48.5C 299.494,46.8659 299.66,45.1992 299.5,43.5C 301.833,43.5 304.167,43.5 306.5,43.5C 306.667,71.1687 306.5,98.8353 306,126.5C 304.004,133.091 299.504,136.091 292.5,135.5C 285.126,136.628 280.793,133.628 279.5,126.5C 279.5,123.833 279.5,121.167 279.5,118.5C 281.833,118.5 284.167,118.5 286.5,118.5C 285.901,125.406 288.901,128.239 295.5,127C 296.381,126.292 297.047,125.458 297.5,124.5C 298.65,119.684 298.816,114.684 298,109.5C 297.283,110.044 296.783,110.711 296.5,111.5C 291.148,115.492 285.648,115.492 280,111.5C 279.138,109.913 278.471,108.246 278,106.5C 277.833,97.3333 277.667,88.1667 277.5,79C 277.382,68.4444 277.882,57.9444 279,47.5C 280.937,43.6139 284.103,41.9472 288.5,42.5C 292.424,41.9651 295.424,43.2985 297.5,46.5 Z M 296.5,54.5 C 297.484,70.4225 297.817,86.4225 297.5,102.5C 295.1,105.24 292.1,106.073 288.5,105C 287.874,104.25 287.374,103.416 287,102.5C 286.333,86.5 286.333,70.5 287,54.5C 290.144,50.6491 293.311,50.6491 296.5,54.5 Z"/></g>
<g><path style="opacity:1" fill="#0d538d" d="M 323.5,117.5 C 320.833,118.833 318.167,118.833 315.5,117.5C 315.5,92.8333 315.5,68.1667 315.5,43.5C 318.167,43.5 320.833,43.5 323.5,43.5C 323.5,68.1667 323.5,92.8333 323.5,117.5 Z"/></g>
<g><path style="opacity:0.141" fill="#010b13" d="M 323.5,117.5 C 323.5,92.8333 323.5,68.1667 323.5,43.5C 320.833,43.5 318.167,43.5 315.5,43.5C 315.5,68.1667 315.5,92.8333 315.5,117.5C 314.502,92.6722 314.169,67.6722 314.5,42.5C 317.833,42.5 321.167,42.5 324.5,42.5C 324.831,67.6722 324.498,92.6722 323.5,117.5 Z"/></g>
<g><path style="opacity:0.49" fill="#434345" d="M 408.5,43.5 C 406.167,43.5 403.833,43.5 401.5,43.5C 401.5,68.1667 401.5,92.8333 401.5,117.5C 400.502,92.6722 400.169,67.6722 400.5,42.5C 403.385,42.1936 406.052,42.5269 408.5,43.5 Z"/></g>
<g><path style="opacity:1" fill="#909094" d="M 419.5,42.5 C 419.5,45.5 419.5,48.5 419.5,51.5C 416.941,51.1984 414.607,51.5318 412.5,52.5C 411.878,53.6266 411.045,54.6266 410,55.5C 409.5,76.164 409.333,96.8306 409.5,117.5C 406.833,117.5 404.167,117.5 401.5,117.5C 401.5,92.8333 401.5,68.1667 401.5,43.5C 403.833,43.5 406.167,43.5 408.5,43.5C 408.351,44.552 408.517,45.552 409,46.5C 411.591,42.9518 415.091,41.6185 419.5,42.5 Z"/></g>
<g><path style="opacity:0.353" fill="#2b2b2b" d="M 419.5,42.5 C 420.479,45.6248 420.813,48.9581 420.5,52.5C 417.833,52.5 415.167,52.5 412.5,52.5C 414.607,51.5318 416.941,51.1984 419.5,51.5C 419.5,48.5 419.5,45.5 419.5,42.5 Z"/></g>
<g><path style="opacity:0.49" fill="#3a3a3c" d="M 337.5,44.5 C 336.833,45.8333 335.833,46.8333 334.5,47.5C 334.5,45.5 335.5,44.5 337.5,44.5 Z"/></g>
<g><path style="opacity:0.392" fill="#313132" d="M 354.5,44.5 C 355.906,44.9731 356.573,45.9731 356.5,47.5C 355.094,47.0269 354.427,46.0269 354.5,44.5 Z"/></g>
<g><path style="opacity:0.349" fill="#313132" d="M 447.5,45.5 C 448.906,45.9731 449.573,46.9731 449.5,48.5C 448.094,48.0269 447.427,47.0269 447.5,45.5 Z"/></g>
<g><path style="opacity:0.694" fill="#101f32" d="M 68.5,51.5 C 70.5,51.5 71.5,52.5 71.5,54.5C 70.1667,53.8333 69.1667,52.8333 68.5,51.5 Z"/></g>
<g><path style="opacity:1" fill="#8b8b8f" d="M 55.5,54.5 C 55.427,56.0269 56.0937,57.0269 57.5,57.5C 60.4125,62.794 59.7458,67.794 55.5,72.5C 57.0404,78.7427 58.0404,85.076 58.5,91.5C 52.588,93.4563 46.2547,94.1229 39.5,93.5C 39.5,91.8333 39.5,90.1667 39.5,88.5C 39.839,83.4646 40.5056,78.4646 41.5,73.5C 40.1973,70.2171 38.864,66.8838 37.5,63.5C 39.8493,52.9919 45.8493,49.9919 55.5,54.5 Z"/></g>
<g><path style="opacity:0.749" fill="#404041" d="M 55.5,54.5 C 56.9063,54.9731 57.573,55.9731 57.5,57.5C 56.0937,57.0269 55.427,56.0269 55.5,54.5 Z"/></g>
<g><path style="opacity:0.29" fill="#031a2c" d="M 296.5,54.5 C 297.831,62.1376 298.498,70.1376 298.5,78.5C 298.5,86.6738 298.166,94.6738 297.5,102.5C 297.817,86.4225 297.484,70.4225 296.5,54.5 Z"/></g>
<g><path style="opacity:0.29" fill="#2f2f30" d="M 382.5,52.5 C 383.821,55.5982 384.488,59.0982 384.5,63C 384.488,66.9018 383.821,70.4018 382.5,73.5C 383.833,66.5 383.833,59.5 382.5,52.5 Z"/></g>
<g><path style="opacity:0.518" fill="#454547" d="M 442.5,54.5 C 443.491,61.3134 443.825,68.3134 443.5,75.5C 439.629,75.815 435.962,75.4816 432.5,74.5C 435.833,74.5 439.167,74.5 442.5,74.5C 442.5,67.8333 442.5,61.1667 442.5,54.5 Z"/></g>
<g><path style="opacity:0.282" fill="#2c2c2d" d="M 382.5,80.5 C 382.56,79.9569 382.893,79.6236 383.5,79.5C 384.822,88.6582 384.822,97.6582 383.5,106.5C 383.826,97.6506 383.493,88.9839 382.5,80.5 Z"/></g>
<g><path style="opacity:0.373" fill="#051e32" d="M 22.5,88.5 C 21.1901,95.4012 21.1901,102.401 22.5,109.5C 21.1768,106.062 20.5102,102.229 20.5,98C 20.8333,94.1667 21.1667,90.3333 21.5,86.5C 22.2975,86.9569 22.6309,87.6236 22.5,88.5 Z"/></g>
<g><path style="opacity:0.29" fill="#2d2d2e" d="M 358.5,107.5 C 358.5,100.833 358.5,94.1667 358.5,87.5C 356.167,87.5 353.833,87.5 351.5,87.5C 351.823,94.0221 351.49,100.355 350.5,106.5C 350.5,99.8333 350.5,93.1667 350.5,86.5C 353.5,86.5 356.5,86.5 359.5,86.5C 359.825,93.6866 359.491,100.687 358.5,107.5 Z"/></g>
<g><path style="opacity:0.29" fill="#2f2f30" d="M 450.5,107.5 C 450.5,100.833 450.5,94.1667 450.5,87.5C 448.167,87.5 445.833,87.5 443.5,87.5C 443.823,93.69 443.49,99.69 442.5,105.5C 442.5,99.1667 442.5,92.8333 442.5,86.5C 445.5,86.5 448.5,86.5 451.5,86.5C 451.825,93.6866 451.491,100.687 450.5,107.5 Z"/></g>
<g><path style="opacity:0.267" fill="#262627" d="M 39.5,88.5 C 39.5,90.1667 39.5,91.8333 39.5,93.5C 46.2547,94.1229 52.588,93.4563 58.5,91.5C 59.404,92.209 59.7373,93.209 59.5,94.5C 52.5,94.5 45.5,94.5 38.5,94.5C 38.2053,92.2646 38.5386,90.2646 39.5,88.5 Z"/></g>
<g><path style="opacity:0.82" fill="#0f2338" d="M 233.5,107.5 C 234.71,107.932 235.71,108.599 236.5,109.5C 234.821,109.715 233.821,109.048 233.5,107.5 Z"/></g>
<g><path style="opacity:0.541" fill="#2a2a2b" d="M 433.5,107.5 C 434.5,107.833 435.167,108.5 435.5,109.5C 434.167,109.5 433.5,108.833 433.5,107.5 Z"/></g>
<g><path style="opacity:0.264" fill="#04192b" d="M 297.5,124.5 C 297.818,119.968 297.485,115.634 296.5,111.5C 296.783,110.711 297.283,110.044 298,109.5C 298.816,114.684 298.65,119.684 297.5,124.5 Z"/></g>
<g><path style="opacity:0.376" fill="#0c1d2e" d="M 226.5,115.5 C 228.027,115.427 229.027,116.094 229.5,117.5C 227.973,117.573 226.973,116.906 226.5,115.5 Z"/></g>
<g><path style="opacity:0.533" fill="#0a1d30" d="M 94.5,3.5 C 95.4985,41.9964 95.8319,80.6631 95.5,119.5C 90.1667,119.5 84.8333,119.5 79.5,119.5C 79.8128,115.958 79.4794,112.625 78.5,109.5C 78.56,108.957 78.8933,108.624 79.5,108.5C 80.487,111.768 80.8204,115.102 80.5,118.5C 85.1667,118.5 89.8333,118.5 94.5,118.5C 94.5,80.1667 94.5,41.8333 94.5,3.5 Z"/></g>
<g><path style="opacity:0.333" fill="#081725" d="M 286.5,118.5 C 284.167,118.5 281.833,118.5 279.5,118.5C 279.5,121.167 279.5,123.833 279.5,126.5C 278.523,123.713 278.19,120.713 278.5,117.5C 281.385,117.194 284.052,117.527 286.5,118.5 Z"/></g>
</svg>